<svg width="28" height="28" viewBox="0 0 28 28" fill="none" xmlns="http://www.w3.org/2000/svg">
<g clip-path="url(#clip0)">
<path d="M23.9955 21.8271C23.9058 21.8271 23.8149 21.805 23.7309 21.7585C21.4865 20.5149 18.2981 19.8016 14.9834 19.8016C14.6814 19.8016 14.4365 19.5568 14.4365 19.2548C14.4365 18.9527 14.6814 18.7079 14.9834 18.7079C18.5292 18.7079 21.824 19.4515 24.261 20.8018C24.5252 20.9482 24.6207 21.281 24.4743 21.5452C24.3744 21.7254 24.1878 21.8271 23.9955 21.8271Z" fill="black"/>
<path d="M10.8047 20.1768C10.5465 20.1768 10.3169 19.9932 10.2677 19.7303C10.2122 19.4334 10.4079 19.1477 10.7048 19.0922C12.0696 18.8372 13.509 18.7079 14.9831 18.7079C15.2851 18.7079 15.53 18.9527 15.53 19.2548C15.53 19.5568 15.2851 19.8016 14.9831 19.8016C13.5762 19.8016 12.2044 19.9247 10.9057 20.1674C10.8718 20.1737 10.838 20.1768 10.8047 20.1768Z" fill="black"/>
<path d="M26.5424 9.11354C26.4044 9.11354 26.2664 9.06148 26.1601 8.95697L26.1585 8.95538C25.9432 8.74358 25.9403 8.39735 26.1521 8.18199C26.3637 7.96669 26.7101 7.96368 26.9255 8.17549C27.1408 8.38729 27.1446 8.73428 26.9328 8.94964C26.8254 9.0588 26.6839 9.11354 26.5424 9.11354Z" fill="black"/>
<path d="M27.7082 10.8648C27.6619 10.5664 27.3826 10.362 27.084 10.4082C26.7856 10.4546 26.5811 10.7341 26.6274 11.0325C26.6936 11.4592 26.7364 11.8906 26.7563 12.3209H21.9146C21.8668 10.1527 21.535 8.07898 20.9533 6.25745C22.0112 5.96329 22.9942 5.58819 23.8769 5.13833C24.2833 5.60695 24.6568 6.11149 24.9926 6.64973C25.1525 6.90599 25.4897 6.9843 25.746 6.82434C26.0023 6.66455 26.0804 6.32723 25.9206 6.07091C25.4845 5.37162 24.9814 4.71696 24.422 4.11523C24.4024 4.09079 24.3811 4.06842 24.3581 4.04813C23.4747 3.11123 22.4538 2.30546 21.3305 1.66862C19.4053 0.577008 17.2103 0 14.9831 0C12.335 0 9.79087 0.797344 7.6259 2.30579C5.55111 3.75145 3.96348 5.7458 3.02641 8.0798C2.12324 8.85172 1.54913 9.99748 1.54913 11.2753V13.3871C0.761852 13.4379 0.136719 14.0944 0.136719 14.8947V19.4049C0.136719 20.2381 0.814297 20.916 1.64713 20.916H2.96472V25.209C2.96472 26.748 4.21766 28.0001 5.75772 28.0001C7.29777 28.0001 8.55072 26.748 8.55072 25.209V24.0185C10.5012 25.1455 12.7051 25.7371 14.9831 25.7371C18.4236 25.7371 21.6581 24.3986 24.0907 21.9681C26.5235 19.5375 27.8633 16.3056 27.8633 12.8678C27.8633 12.2018 27.8111 11.5279 27.7082 10.8648ZM11.5932 1.59994C10.7239 2.48894 9.96822 3.71946 9.37934 5.21724C8.48597 4.97377 7.65138 4.67201 6.90009 4.31736C8.2297 3.06972 9.83866 2.13336 11.5932 1.59994ZM6.10072 5.14352C6.98009 5.59076 7.95867 5.96384 9.01146 6.25674C8.82536 6.84332 8.66299 7.46315 8.5266 8.11234C7.78597 7.46413 6.81729 7.06995 5.75766 7.06995C5.37119 7.06995 4.99713 7.12332 4.64133 7.22127C5.05373 6.4727 5.54455 5.77713 6.10072 5.14352ZM2.64288 11.2753C2.64288 10.306 3.08908 9.4389 3.78689 8.8678C3.80953 8.85259 3.83113 8.8357 3.85142 8.8171C4.37872 8.40809 5.04 8.1637 5.75772 8.1637C6.86082 8.1637 7.83109 8.73999 8.38463 9.60652C8.39508 9.62484 8.40629 9.64272 8.41881 9.65973C8.70658 10.131 8.87255 10.6841 8.87255 11.2753V13.3836H2.64288V11.2753ZM1.23047 19.4049V14.8947C1.23047 14.6684 1.42127 14.4774 1.64713 14.4774H2.09601H9.41938H9.86825C10.0941 14.4774 10.2849 14.6685 10.2849 14.8947V19.4049C10.2849 19.6305 10.0951 19.8211 9.87011 19.8221C9.86994 19.8221 9.86978 19.8221 9.86956 19.8221C9.86913 19.8221 9.86869 19.8222 9.8682 19.8222H8.00373H3.51159H1.64713C1.42127 19.8222 1.23047 19.6311 1.23047 19.4049ZM5.75772 26.9062C4.82076 26.9062 4.05847 26.1449 4.05847 25.209V20.9159H7.45697V23.0217V23.0235V25.209C7.45691 26.1449 6.69468 26.9062 5.75772 26.9062ZM8.55066 22.735V20.916H9.5474C10.1217 22.2601 10.8219 23.3512 11.6087 24.1534C10.5323 23.8326 9.50392 23.357 8.55066 22.735ZM14.4362 24.5874C13.0041 24.3003 11.6356 22.9009 10.6468 20.6993C11.085 20.4345 11.3787 19.9534 11.3787 19.4049V14.8947C11.3787 14.1661 10.8606 13.5563 10.1736 13.4147H14.4362V24.5874ZM14.4362 12.3209H9.96625V11.2753C9.96625 10.532 9.77151 9.83369 9.43146 9.22715C9.59033 8.26049 9.80859 7.35273 10.0773 6.52023C11.4452 6.81838 12.9145 6.98955 14.4362 7.0227V12.3209H14.4362ZM14.4362 5.92856C13.0602 5.89591 11.7136 5.74077 10.4558 5.47619C11.4369 3.05785 12.8718 1.45414 14.4362 1.14778V5.92856ZM23.0845 4.30932C22.3275 4.66807 21.4855 4.97306 20.5835 5.21855C20.402 4.75918 20.2036 4.31966 19.988 3.90392C19.5027 2.96827 18.9521 2.1892 18.3533 1.57916C20.1236 2.10246 21.7417 3.03516 23.0845 4.30932ZM15.53 1.14685C16.8231 1.39759 18.0448 2.53307 19.0171 4.40754C19.1933 4.74726 19.3574 5.10448 19.5093 5.47668C18.2518 5.74104 16.9057 5.89597 15.53 5.92862V1.14685H15.53ZM15.53 7.02275C17.0522 6.98966 18.5218 6.81844 19.89 6.52028C20.4515 8.2501 20.7729 10.2355 20.8208 12.3209H15.53V7.02275ZM15.53 24.5903V13.4146H20.8208C20.752 16.414 20.1178 19.207 19.0171 21.3294C18.0449 23.204 16.8231 24.3395 15.53 24.5903ZM18.3612 24.1497C18.9569 23.5408 19.5048 22.7645 19.988 21.833C21.167 19.5596 21.8447 16.5879 21.9146 13.4146H26.7564C26.5227 18.4951 23.0517 22.7452 18.3612 24.1497Z" fill="black"/>
</g>
<defs>
<clipPath id="clip0">
<rect width="28" height="28" fill="white"/>
</clipPath>
</defs>
</svg>
